{"title":"Crouching.Tiger.Hidden.Dragon.DVDRIP.XviD-ZEKTORM","uid":5101257,"size":738519486,"categoryP":"video","categoryS":"movies","magnet":"?xt=urn:btih:c28a49b9dc65755153608724a63c937c8cfe3186&amp;dn=Crouching.Tiger.Hidden.Dragon.DVDRIP.XviD-ZEKTORM&amp;tr=udp%3A%2F%2Ftracker.openbittorrent.com%3A80&amp;tr=udp%3A%2F%2Fopen.demonii.com%3A1337&amp;tr=udp%3A%2F%2Ftracker.coppersurfer.tk%3A6969&amp;tr=udp%3A%2F%2Fexodus.desync.com%3A6969","seeders":10,"leechers":0,"uploader":"blowley","files":5,"time":1253996128,"description":"Title                            : Wo hu cang long\nAlso Known As                    : Crouching Tiger, Hidden Dragon\nYear                             : 2000\nGenre                            : Action | Adventure | Drama | Romance\niMDB URL                         : http://www.imdb.com/title/tt0190332/\nAwards                           : Won 4 Oscars. Another 73 wins &amp; 90 nominations\n\nComplete name                    : Crouching.Tiger.Hidden.Dragon.DVDRIP.XviD-ZEKTORM.avi\nFormat                           : AVI\nFile size                        : 701 MiB\nDuration                         : 2h 0mn\nOverall bit rate                 : 815 Kbps\nSubtitles                        : English (Format: srt/VobSub)\nSource                           : DVD NTSC\n\nVideo\nFormat                           : MPEG-4 Visual\nFormat profile                   : Streaming Video@L1\nCodec ID                         : XVID\nCodec ID/Hint                    : XviD\nDuration                         : 2h 0mn\nBit rate                         : 698 Kbps\nWidth                            : 720 pixels\nHeight                           : 304 pixels\nDisplay aspect ratio             : 2.35\nFrame rate                       : 23.976 fps\nResolution                       : 24 bits\nColorimetry                      : 4:2:0\nScan type                        : Progressive\nBits/(Pixel*Frame)               : 0.133\nStream size                      : 600 MiB (86%)\nWriting library                  : XviD\n\nAudio\nLanguage                         : Mandarin\nFormat                           : MPEG Audio\nFormat version                   : Version 1\nFormat profile                   : Layer 3\nCodec ID                         : 55\nCodec ID/Hint                    : MP3\nDuration                         : 2h 0mn\nBit rate mode                    : Variable\nBit rate                         : 105 Kbps\nMinimum bit rate                 : 128 Kbps\nChannel(s)                       : 2 channels\nSampling rate                    : 48.0 KHz\nResolution                       : 16 bits\nStream size                      : 90.2 MiB (13%)\nWriting library                  : LAME3.98r\nEncoding settings                : ABR\n","torrent":{"xt":"urn:btih:c28a49b9dc65755153608724a63c937c8cfe3186","amp;dn":"Crouching.Tiger.Hidden.Dragon.DVDRIP.XviD-ZEKTORM","amp;tr":["udp%3A%2F%2Ftracker.openbittorrent.com%3A80","udp%3A%2F%2Fopen.demonii.com%3A1337","udp%3A%2F%2Ftracker.coppersurfer.tk%3A6969","udp%3A%2F%2Fexodus.desync.com%3A6969"],"infoHash":"c28a49b9dc65755153608724a63c937c8cfe3186","infoHashBuffer":{"type":"Buffer","data":[194,138,73,185,220,101,117,81,83,96,135,36,166,60,147,124,140,254,49,134]},"announce":[],"urlList":[]}}